<svg width="256" height="256" viewBox="0 0 256 256" fill="none" xmlns="http://www.w3.org/2000/svg">
<g clip-path="url(#clip0_105_2)">
<path d="M256 128C256 198.704 198.704 256 128 256C57.296 256 0 198.704 0 128C0 57.296 57.296 0 128 0C198.704 0 256 57.296 256 128Z" fill="black"/>
<path d="M128 234.667C186.632 234.667 234.667 186.632 234.667 128C234.667 69.368 186.632 21.3333 128 21.3333C69.368 21.3333 21.3333 69.368 21.3333 128C21.3333 186.632 69.368 234.667 128 234.667Z" fill="white"/>
<path d="M106.667 92.208V163.792H118.875V113.167L154.375 163.792H161.917L126.833 112.5L164.25 92.208H152.125L118.875 106.292V92.208H106.667Z" fill="black"/>
</g>
<defs>
<clipPath id="clip0_105_2">
<rect width="256" height="256" fill="white"/>
</clipPath>
</defs>
</svg>
